<?xml version="1.0" encoding="UTF-8" standalone="no"?>
<!DOCTYPE svg PUBLIC "-//W3C//DTD SVG 1.1//EN" "http://www.w3.org/Graphics/SVG/1.1/DTD/svg11.dtd">
<svg id="Ebene_1" data-name="Ebene 1" xmlns="http://www.w3.org/2000/svg" xmlns:xlink="http://www.w3.org/1999/xlink" viewBox="0 0 370.13 360.11"><defs><style>.cls-1{fill:url(#Unbenannter_Verlauf_13);}.cls-2{fill:url(#Unbenannter_Verlauf_13-2);}.cls-3{fill:url(#Unbenannter_Verlauf_13-3);}</style><linearGradient id="Unbenannter_Verlauf_13" x1="388.85" y1="319.15" x2="178.13" y2="-46.47" gradientUnits="userSpaceOnUse"><stop offset="0" stop-color="#3e5caa"/><stop offset="1" stop-color="#00bed2"/></linearGradient><linearGradient id="Unbenannter_Verlauf_13-2" x1="203.27" y1="426.11" x2="-7.46" y2="60.48" xlink:href="#Unbenannter_Verlauf_13"/><linearGradient id="Unbenannter_Verlauf_13-3" x1="308.75" y1="365.32" x2="98.02" y2="-0.31" xlink:href="#Unbenannter_Verlauf_13"/></defs><path class="cls-1" d="M305.89,49.09H123.38l38,64.84a77.73,77.73,0,1,1,78.66,134l65.81,112.14a64.24,64.24,0,0,0,64.24-64.26V113.34A64.24,64.24,0,0,0,305.89,49.09Z"/><path class="cls-2" d="M202.34,257.75a77.71,77.71,0,0,1-60.83-126.1L64.25,0A64.25,64.25,0,0,0,0,64.25V246.76A64.25,64.25,0,0,0,64.25,311H246.76L214.9,256.73A78.75,78.75,0,0,1,202.34,257.75Z"/><path class="cls-3" d="M201.89,121.76A58.15,58.15,0,1,0,260,179.91,58.14,58.14,0,0,0,201.89,121.76Zm0,76.76a18.61,18.61,0,1,1,18.61-18.61A18.61,18.61,0,0,1,201.89,198.52Z"/></svg>